<svg xmlns="http://www.w3.org/2000/svg" xml:space="preserve" style="fill-rule:evenodd;clip-rule:evenodd;stroke-linejoin:round;stroke-miterlimit:2" viewBox="0 0 512 512"><path d="M0 0h512v512H0z" style="fill:#080808"/><path d="M111.25 206.557h21.779v66.96H111.25z" style="fill:#fff" transform="matrix(1.56605 0 0 1.44298 -117.943 -114.314)"/><path d="M111.25 206.557h21.779v66.96H111.25z" style="fill:#fff" transform="matrix(1.56605 0 0 1.44298 -19.039 -114.314)"/><path d="M111.25 206.557h21.779v66.96H111.25z" style="fill:#fff" transform="matrix(0 -1.43875 .9677 0 -109.5 471.76)"/><path d="M111.25 206.557h21.779v66.96H111.25z" style="fill:#fff" transform="matrix(0 -1.43875 1.978 0 -190.747 519.65)"/><path d="M111.25 206.557h21.779v66.96H111.25z" style="fill:#fff" transform="matrix(1.47196 0 0 2.37891 249.725 -338.97)"/><path d="M111.25 206.557h21.779v66.96H111.25z" style="fill:#fff" transform="matrix(0 -1.43875 .96935 0 179.331 375.14)"/><path d="M111.25 206.557h21.779v66.96H111.25z" style="fill:#fff" transform="matrix(0 -1.43875 .9677 0 -109.5 343.804)"/></svg>