<svg xmlns="http://www.w3.org/2000/svg" xml:space="preserve" style="fill-rule:evenodd;clip-rule:evenodd;stroke-linejoin:round;stroke-miterlimit:2" viewBox="0 0 284 104"><g transform="translate(-28.4 -118.3)"><path d="M28.4 118.3h283.4v103.4H28.4z" style="fill:none"/><clipPath id="a"><path d="M28.4 118.3h283.4v103.4H28.4z"/></clipPath><g clip-path="url(#a)"><path d="M276.5 207.4c2.7-13.4 35.3-89.1 35.3-89.1h-10.3c-6.9 7.3-20.7 16.6-40.6 25.4-5.9 2.7-11.6 5.4-17.4 7.8 2.3-3.5 3.6-7.5 3.6-11.8 0-10.2-7.3-17-35.9-17h-47.5l-1.3 3.1h6.4c3.5 0 5.6.7 5.6 4.5 0 5.6-4.3 17.7-14.2 41.9q-2.25 5.55-4.2 10.2c-25.3 7.9-51.3 15.9-77.7 13.7 20.5-22.6 51.9-56.4 68.6-69.9l-1.4-3.5H61L49.8 150c-5.9 12.2-9.2 30.1 1.6 41.2.8.9 1.7 1.7 2.6 2.4-9.7 10-18.8 18.8-25.6 24.6l1.1 3.1 94 .4h.9c9 0 17.3-.4 29.2-.4 12.2 0 25.4.4 31.5.4 36.9 0 52.7-14.7 52.7-30 0-9.1-5.8-16.9-22.1-21.1 16.5-6.9 32.8-14.6 49.8-24 7.4-3.8 14.4-7.5 19.7-11.1L265 185.4c-8.9 19.2-14.4 29.4-25.8 29.4h-5.4l-1.2 3h58.2l1.2-3h-9.2c-4.2-.1-7.2-3-6.3-7.4m-93.2-38.3c16.1-40 18.1-43.2 26.8-43.2 10 0 14.4 4.6 14.4 13.4 0 6.8-2.9 13-6.7 17.9-3 3.9-7.5 6.9-12.3 9.3-8.1 2.9-16.3 5.6-24.5 8.3.4-.9 2.3-5.7 2.3-5.7m-131-17.8c13.6-21.5 27.2-25 56.9-25h5.9c-5.1 6.3-32.4 37.4-57 63.1-13.2-10-11.3-29.5-5.8-38.1m8 65.2c2.1-2.4 6.6-7.5 12.6-14.1 6.4 1.4 13 1.7 19.3 1.7 12.6-.4 24.9-2.3 37-5-7.3 10.2-20.6 17.6-53 17.6zm71 2.2h-5.7l8.4-20.8c5.9-1.5 11.9-3.1 17.7-4.9-10.1 23.2-13.5 25.7-20.4 25.7m83.4-30.5c0 12.2-7.7 30.6-40 30.6-4.9 0-6.9-.4-6.9-4.3 0-4.5 2.7-13.1 9.1-29.4 4.2-1.4 8.4-2.8 12.6-4.1 7.1-2.6 14-5.2 20.9-8 3.7 4.6 4.3 9.8 4.3 15.2" style="fill:#fff;fill-rule:nonzero" transform="translate(.4 .3)"/></g></g></svg>